<svg xmlns="http://www.w3.org/2000/svg" width="1440" height="1627" viewBox="0 0 1440 1627" role="img" aria-labelledby="title desc">
<title id="title">Chat Filter 完整 metrics 快照柱状图</title>
<desc id="desc">展示用户提供的 Chat Filter counters 和 timings 指标，包括计数、样本数量、平均耗时、最大耗时和累计耗时。</desc>
<rect width="100%" height="100%" fill="#f8fafc"/>
<style>
  text { font-family: "Microsoft YaHei", "PingFang SC", "Noto Sans CJK SC", Arial, sans-serif; fill: #0f172a; }
  .page-title { font-size: 26px; font-weight: 700; }
  .page-subtitle { font-size: 14px; fill: #475569; }
  .panel-title { font-size: 19px; font-weight: 700; }
  .subtitle { font-size: 12px; fill: #475569; }
  .axis { stroke: #cbd5e1; stroke-width: 1; }
  .grid { stroke: #e2e8f0; stroke-width: 1; }
  .tick { font-size: 11px; fill: #64748b; }
  .label { font-size: 11px; fill: #334155; }
  .metric { font-size: 9px; fill: #64748b; }
  .value { font-size: 11px; fill: #0f172a; font-weight: 700; }
</style>
<text x="56" y="36" class="page-title">Chat Filter 完整 Metrics 快照柱状图</text>
<text x="56" y="60" class="page-subtitle">数据来源：1000 个入口事件的运行中 metrics 快照；耗时图使用对数刻度以保留小耗时指标的可读性。</text>
<rect x="56" y="72" width="650" height="445" rx="8" fill="#ffffff" stroke="#e2e8f0"/>
<text x="78" y="104" class="panel-title">Counters：消息入口</text>
<text x="78" y="128" class="subtitle">入口事件、命中与未命中/非消息事件计数。</text>
<line x1="122.00" y1="405.00" x2="682.00" y2="405.00" class="axis"/>
<line x1="122.00" y1="170.00" x2="122.00" y2="405.00" class="axis"/>
<line x1="122.00" y1="405.00" x2="682.00" y2="405.00" class="grid"/>
<text x="114.00" y="409.00" text-anchor="end" class="tick">0</text>
<line x1="122.00" y1="346.25" x2="682.00" y2="346.25" class="grid"/>
<text x="114.00" y="350.25" text-anchor="end" class="tick">250</text>
<line x1="122.00" y1="287.50" x2="682.00" y2="287.50" class="grid"/>
<text x="114.00" y="291.50" text-anchor="end" class="tick">500</text>
<line x1="122.00" y1="228.75" x2="682.00" y2="228.75" class="grid"/>
<text x="114.00" y="232.75" text-anchor="end" class="tick">750</text>
<line x1="122.00" y1="170.00" x2="682.00" y2="170.00" class="grid"/>
<text x="114.00" y="174.00" text-anchor="end" class="tick">1000</text>
<g><title>message.handle_group_message.total = 1000</title>
<rect x="191.33" y="170.00" width="48.00" height="235.00" rx="4" fill="#2563eb"/>
<text x="215.33" y="182.00" text-anchor="middle" class="value">1000</text>
<text x="215.33" y="425.00" text-anchor="end" transform="rotate(-35 215.33 425.00)" class="label">handle total</text>
<text x="215.33" y="439.00" text-anchor="end" transform="rotate(-35 215.33 439.00)" class="metric">message.handle_group_message.total</text>
</g>
<g><title>message.matched.total = 990</title>
<rect x="378.00" y="172.35" width="48.00" height="232.65" rx="4" fill="#16a34a"/>
<text x="402.00" y="182.00" text-anchor="middle" class="value">990</text>
<text x="402.00" y="425.00" text-anchor="end" transform="rotate(-35 402.00 425.00)" class="label">matched</text>
<text x="402.00" y="439.00" text-anchor="end" transform="rotate(-35 402.00 439.00)" class="metric">message.matched.total</text>
</g>
<g><title>message.unmatched.total = 10</title>
<rect x="564.67" y="402.65" width="48.00" height="2.35" rx="4" fill="#94a3b8"/>
<text x="588.67" y="395.65" text-anchor="middle" class="value">10</text>
<text x="588.67" y="425.00" text-anchor="end" transform="rotate(-35 588.67 425.00)" class="label">unmatched/event</text>
<text x="588.67" y="439.00" text-anchor="end" transform="rotate(-35 588.67 439.00)" class="metric">message.unmatched.total</text>
</g>
<rect x="750" y="72" width="650" height="445" rx="8" fill="#ffffff" stroke="#e2e8f0"/>
<text x="772" y="104" class="panel-title">Counters：队列、记录与动作</text>
<text x="772" y="128" class="subtitle">所有成功/入队/完成类计数；forward success</text>
<text x="772" y="145" class="subtitle">目前不宜直接等同违规消息数。</text>
<line x1="816.00" y1="405.00" x2="1376.00" y2="405.00" class="axis"/>
<line x1="816.00" y1="170.00" x2="816.00" y2="405.00" class="axis"/>
<line x1="816.00" y1="405.00" x2="1376.00" y2="405.00" class="grid"/>
<text x="808.00" y="409.00" text-anchor="end" class="tick">0</text>
<line x1="816.00" y1="346.25" x2="1376.00" y2="346.25" class="grid"/>
<text x="808.00" y="350.25" text-anchor="end" class="tick">182</text>
<line x1="816.00" y1="287.50" x2="1376.00" y2="287.50" class="grid"/>
<text x="808.00" y="291.50" text-anchor="end" class="tick">364</text>
<line x1="816.00" y1="228.75" x2="1376.00" y2="228.75" class="grid"/>
<text x="808.00" y="232.75" text-anchor="end" class="tick">547</text>
<line x1="816.00" y1="170.00" x2="1376.00" y2="170.00" class="grid"/>
<text x="808.00" y="174.00" text-anchor="end" class="tick">729</text>
<g><title>violation_job.enqueued.total = 729</title>
<rect x="833.60" y="170.00" width="44.80" height="235.00" rx="4" fill="#f59e0b"/>
<text x="856.00" y="182.00" text-anchor="middle" class="value">729</text>
<text x="856.00" y="425.00" text-anchor="end" transform="rotate(-35 856.00 425.00)" class="label">job enqueued</text>
<text x="856.00" y="439.00" text-anchor="end" transform="rotate(-35 856.00 439.00)" class="metric">violation_job.enqueued.total</text>
</g>
<g><title>violation_job.completed.total = 67</title>
<rect x="913.60" y="383.40" width="44.80" height="21.60" rx="4" fill="#475569"/>
<text x="936.00" y="376.40" text-anchor="middle" class="value">67</text>
<text x="936.00" y="425.00" text-anchor="end" transform="rotate(-35 936.00 425.00)" class="label">job completed</text>
<text x="936.00" y="439.00" text-anchor="end" transform="rotate(-35 936.00 439.00)" class="metric">violation_job.completed.total</text>
</g>
<g><title>violation_record.success.total = 68</title>
<rect x="993.60" y="383.08" width="44.80" height="21.92" rx="4" fill="#059669"/>
<text x="1016.00" y="376.08" text-anchor="middle" class="value">68</text>
<text x="1016.00" y="425.00" text-anchor="end" transform="rotate(-35 1016.00 425.00)" class="label">record success</text>
<text x="1016.00" y="439.00" text-anchor="end" transform="rotate(-35 1016.00 439.00)" class="metric">violation_record.success.total</text>
</g>
<g><title>violation_action.mute.success.total = 68</title>
<rect x="1073.60" y="383.08" width="44.80" height="21.92" rx="4" fill="#ea580c"/>
<text x="1096.00" y="376.08" text-anchor="middle" class="value">68</text>
<text x="1096.00" y="425.00" text-anchor="end" transform="rotate(-35 1096.00 425.00)" class="label">mute success</text>
<text x="1096.00" y="439.00" text-anchor="end" transform="rotate(-35 1096.00 439.00)" class="metric">violation_action.mute.success.total</text>
</g>
<g><title>violation_action.recall.success.total = 68</title>
<rect x="1153.60" y="383.08" width="44.80" height="21.92" rx="4" fill="#db2777"/>
<text x="1176.00" y="376.08" text-anchor="middle" class="value">68</text>
<text x="1176.00" y="425.00" text-anchor="end" transform="rotate(-35 1176.00 425.00)" class="label">recall success</text>
<text x="1176.00" y="439.00" text-anchor="end" transform="rotate(-35 1176.00 439.00)" class="metric">violation_action.recall.success.total</text>
</g>
<g><title>violation_action.forward.success.total = 203</title>
<rect x="1233.60" y="339.56" width="44.80" height="65.44" rx="4" fill="#7c3aed"/>
<text x="1256.00" y="332.56" text-anchor="middle" class="value">203</text>
<text x="1256.00" y="425.00" text-anchor="end" transform="rotate(-35 1256.00 425.00)" class="label">forward success</text>
<text x="1256.00" y="439.00" text-anchor="end" transform="rotate(-35 1256.00 439.00)" class="metric">violation_action.forward.success.total</text>
</g>
<g><title>violation_action.text_log.success.total = 135</title>
<rect x="1313.60" y="361.48" width="44.80" height="43.52" rx="4" fill="#0891b2"/>
<text x="1336.00" y="354.48" text-anchor="middle" class="value">135</text>
<text x="1336.00" y="425.00" text-anchor="end" transform="rotate(-35 1336.00 425.00)" class="label">text log success</text>
<text x="1336.00" y="439.00" text-anchor="end" transform="rotate(-35 1336.00 439.00)" class="metric">violation_action.text_log.success.total</text>
</g>
<rect x="56" y="561" width="650" height="445" rx="8" fill="#ffffff" stroke="#e2e8f0"/>
<text x="78" y="593" class="panel-title">Timings：样本数量</text>
<text x="78" y="617" class="subtitle">每个 timing 指标实际记录到的样本数；入口样本数低于入口</text>
<text x="78" y="634" class="subtitle">total，说明抓取时仍有入口未返回。</text>
<line x1="122.00" y1="894.00" x2="682.00" y2="894.00" class="axis"/>
<line x1="122.00" y1="659.00" x2="122.00" y2="894.00" class="axis"/>
<line x1="122.00" y1="894.00" x2="682.00" y2="894.00" class="grid"/>
<text x="114.00" y="898.00" text-anchor="end" class="tick">0</text>
<line x1="122.00" y1="835.25" x2="682.00" y2="835.25" class="grid"/>
<text x="114.00" y="839.25" text-anchor="end" class="tick">250</text>
<line x1="122.00" y1="776.50" x2="682.00" y2="776.50" class="grid"/>
<text x="114.00" y="780.50" text-anchor="end" class="tick">500</text>
<line x1="122.00" y1="717.75" x2="682.00" y2="717.75" class="grid"/>
<text x="114.00" y="721.75" text-anchor="end" class="tick">750</text>
<line x1="122.00" y1="659.00" x2="682.00" y2="659.00" class="grid"/>
<text x="114.00" y="663.00" text-anchor="end" class="tick">1000</text>
<g><title>message.handle_group_message.ms = 739</title>
<rect x="137.40" y="720.34" width="39.20" height="173.66" rx="4" fill="#dc2626"/>
<text x="157.00" y="713.34" text-anchor="middle" class="value">739</text>
<text x="157.00" y="914.00" text-anchor="end" transform="rotate(-35 157.00 914.00)" class="label">handle</text>
<text x="157.00" y="928.00" text-anchor="end" transform="rotate(-35 157.00 928.00)" class="metric">message.handle_group_message.ms</text>
</g>
<g><title>message.matcher.ms = 1000</title>
<rect x="207.40" y="659.00" width="39.20" height="235.00" rx="4" fill="#16a34a"/>
<text x="227.00" y="671.00" text-anchor="middle" class="value">1000</text>
<text x="227.00" y="914.00" text-anchor="end" transform="rotate(-35 227.00 914.00)" class="label">matcher</text>
<text x="227.00" y="928.00" text-anchor="end" transform="rotate(-35 227.00 928.00)" class="metric">message.matcher.ms</text>
</g>
<g><title>violation_action.forward.ms = 136</title>
<rect x="277.40" y="862.04" width="39.20" height="31.96" rx="4" fill="#7c3aed"/>
<text x="297.00" y="855.04" text-anchor="middle" class="value">136</text>
<text x="297.00" y="914.00" text-anchor="end" transform="rotate(-35 297.00 914.00)" class="label">forward</text>
<text x="297.00" y="928.00" text-anchor="end" transform="rotate(-35 297.00 928.00)" class="metric">violation_action.forward.ms</text>
</g>
<g><title>violation_action.mute.ms = 68</title>
<rect x="347.40" y="878.02" width="39.20" height="15.98" rx="4" fill="#ea580c"/>
<text x="367.00" y="871.02" text-anchor="middle" class="value">68</text>
<text x="367.00" y="914.00" text-anchor="end" transform="rotate(-35 367.00 914.00)" class="label">mute</text>
<text x="367.00" y="928.00" text-anchor="end" transform="rotate(-35 367.00 928.00)" class="metric">violation_action.mute.ms</text>
</g>
<g><title>violation_action.recall.ms = 68</title>
<rect x="417.40" y="878.02" width="39.20" height="15.98" rx="4" fill="#db2777"/>
<text x="437.00" y="871.02" text-anchor="middle" class="value">68</text>
<text x="437.00" y="914.00" text-anchor="end" transform="rotate(-35 437.00 914.00)" class="label">recall</text>
<text x="437.00" y="928.00" text-anchor="end" transform="rotate(-35 437.00 928.00)" class="metric">violation_action.recall.ms</text>
</g>
<g><title>violation_action.text_log.ms = 135</title>
<rect x="487.40" y="862.27" width="39.20" height="31.73" rx="4" fill="#0891b2"/>
<text x="507.00" y="855.27" text-anchor="middle" class="value">135</text>
<text x="507.00" y="914.00" text-anchor="end" transform="rotate(-35 507.00 914.00)" class="label">text log</text>
<text x="507.00" y="928.00" text-anchor="end" transform="rotate(-35 507.00 928.00)" class="metric">violation_action.text_log.ms</text>
</g>
<g><title>violation_job.process.ms = 67</title>
<rect x="557.40" y="878.25" width="39.20" height="15.74" rx="4" fill="#f59e0b"/>
<text x="577.00" y="871.25" text-anchor="middle" class="value">67</text>
<text x="577.00" y="914.00" text-anchor="end" transform="rotate(-35 577.00 914.00)" class="label">job process</text>
<text x="577.00" y="928.00" text-anchor="end" transform="rotate(-35 577.00 928.00)" class="metric">violation_job.process.ms</text>
</g>
<g><title>violation_record.ms = 68</title>
<rect x="627.40" y="878.02" width="39.20" height="15.98" rx="4" fill="#059669"/>
<text x="647.00" y="871.02" text-anchor="middle" class="value">68</text>
<text x="647.00" y="914.00" text-anchor="end" transform="rotate(-35 647.00 914.00)" class="label">record</text>
<text x="647.00" y="928.00" text-anchor="end" transform="rotate(-35 647.00 928.00)" class="metric">violation_record.ms</text>
</g>
<rect x="750" y="561" width="650" height="445" rx="8" fill="#ffffff" stroke="#e2e8f0"/>
<text x="772" y="593" class="panel-title">Timings：平均耗时（对数刻度）</text>
<text x="772" y="617" class="subtitle">匹配器很快；入口平均耗时很高，主要信号在入队等待/队列积压。</text>
<line x1="816.00" y1="894.00" x2="1376.00" y2="894.00" class="axis"/>
<line x1="816.00" y1="659.00" x2="816.00" y2="894.00" class="axis"/>
<line x1="816.00" y1="894.00" x2="1376.00" y2="894.00" class="grid"/>
<text x="808.00" y="898.00" text-anchor="end" class="tick">0.082ms</text>
<line x1="816.00" y1="845.87" x2="1376.00" y2="845.87" class="grid"/>
<text x="808.00" y="849.87" text-anchor="end" class="tick">1.00ms</text>
<line x1="816.00" y1="757.25" x2="1376.00" y2="757.25" class="grid"/>
<text x="808.00" y="761.25" text-anchor="end" class="tick">100.0ms</text>
<line x1="816.00" y1="668.62" x2="1376.00" y2="668.62" class="grid"/>
<text x="808.00" y="672.62" text-anchor="end" class="tick">10.00s</text>
<line x1="816.00" y1="659.00" x2="1376.00" y2="659.00" class="grid"/>
<text x="808.00" y="663.00" text-anchor="end" class="tick">16.49s</text>
<g><title>message.handle_group_message.ms = 16.49s</title>
<rect x="831.40" y="659.00" width="39.20" height="235.00" rx="4" fill="#dc2626"/>
<text x="851.00" y="671.00" text-anchor="middle" class="value">16.49s</text>
<text x="851.00" y="914.00" text-anchor="end" transform="rotate(-35 851.00 914.00)" class="label">handle</text>
<text x="851.00" y="928.00" text-anchor="end" transform="rotate(-35 851.00 928.00)" class="metric">message.handle_group_message.ms</text>
</g>
<g><title>message.matcher.ms = 0.082ms</title>
<rect x="901.40" y="893.00" width="39.20" height="1.00" rx="4" fill="#16a34a"/>
<text x="921.00" y="886.00" text-anchor="middle" class="value">0.082ms</text>
<text x="921.00" y="914.00" text-anchor="end" transform="rotate(-35 921.00 914.00)" class="label">matcher</text>
<text x="921.00" y="928.00" text-anchor="end" transform="rotate(-35 921.00 928.00)" class="metric">message.matcher.ms</text>
</g>
<g><title>violation_action.forward.ms = 1.62ms</title>
<rect x="971.40" y="836.62" width="39.20" height="57.38" rx="4" fill="#7c3aed"/>
<text x="991.00" y="829.62" text-anchor="middle" class="value">1.62ms</text>
<text x="991.00" y="914.00" text-anchor="end" transform="rotate(-35 991.00 914.00)" class="label">forward</text>
<text x="991.00" y="928.00" text-anchor="end" transform="rotate(-35 991.00 928.00)" class="metric">violation_action.forward.ms</text>
</g>
<g><title>violation_action.mute.ms = 82.8ms</title>
<rect x="1041.40" y="760.88" width="39.20" height="133.12" rx="4" fill="#ea580c"/>
<text x="1061.00" y="753.88" text-anchor="middle" class="value">82.8ms</text>
<text x="1061.00" y="914.00" text-anchor="end" transform="rotate(-35 1061.00 914.00)" class="label">mute</text>
<text x="1061.00" y="928.00" text-anchor="end" transform="rotate(-35 1061.00 928.00)" class="metric">violation_action.mute.ms</text>
</g>
<g><title>violation_action.recall.ms = 1.55ms</title>
<rect x="1111.40" y="837.41" width="39.20" height="56.59" rx="4" fill="#db2777"/>
<text x="1131.00" y="830.41" text-anchor="middle" class="value">1.55ms</text>
<text x="1131.00" y="914.00" text-anchor="end" transform="rotate(-35 1131.00 914.00)" class="label">recall</text>
<text x="1131.00" y="928.00" text-anchor="end" transform="rotate(-35 1131.00 928.00)" class="metric">violation_action.recall.ms</text>
</g>
<g><title>violation_action.text_log.ms = 1.61ms</title>
<rect x="1181.40" y="836.75" width="39.20" height="57.25" rx="4" fill="#0891b2"/>
<text x="1201.00" y="829.75" text-anchor="middle" class="value">1.61ms</text>
<text x="1201.00" y="914.00" text-anchor="end" transform="rotate(-35 1201.00 914.00)" class="label">text log</text>
<text x="1201.00" y="928.00" text-anchor="end" transform="rotate(-35 1201.00 928.00)" class="metric">violation_action.text_log.ms</text>
</g>
<g><title>violation_job.process.ms = 452.3ms</title>
<rect x="1251.40" y="728.20" width="39.20" height="165.80" rx="4" fill="#f59e0b"/>
<text x="1271.00" y="721.20" text-anchor="middle" class="value">452.3ms</text>
<text x="1271.00" y="914.00" text-anchor="end" transform="rotate(-35 1271.00 914.00)" class="label">job process</text>
<text x="1271.00" y="928.00" text-anchor="end" transform="rotate(-35 1271.00 928.00)" class="metric">violation_job.process.ms</text>
</g>
<g><title>violation_record.ms = 32.1ms</title>
<rect x="1321.40" y="779.10" width="39.20" height="114.90" rx="4" fill="#059669"/>
<text x="1341.00" y="772.10" text-anchor="middle" class="value">32.1ms</text>
<text x="1341.00" y="914.00" text-anchor="end" transform="rotate(-35 1341.00 914.00)" class="label">record</text>
<text x="1341.00" y="928.00" text-anchor="end" transform="rotate(-35 1341.00 928.00)" class="metric">violation_record.ms</text>
</g>
<rect x="56" y="1050" width="650" height="445" rx="8" fill="#ffffff" stroke="#e2e8f0"/>
<text x="78" y="1082" class="panel-title">Timings：最大耗时（对数刻度）</text>
<text x="78" y="1106" class="subtitle">入口最大耗时接近 28.51s；禁言和 job process 存在秒级尖峰。</text>
<line x1="122.00" y1="1383.00" x2="682.00" y2="1383.00" class="axis"/>
<line x1="122.00" y1="1148.00" x2="122.00" y2="1383.00" class="axis"/>
<line x1="122.00" y1="1383.00" x2="682.00" y2="1383.00" class="grid"/>
<text x="114.00" y="1387.00" text-anchor="end" class="tick">0.417ms</text>
<line x1="122.00" y1="1364.54" x2="682.00" y2="1364.54" class="grid"/>
<text x="114.00" y="1368.54" text-anchor="end" class="tick">1.00ms</text>
<line x1="122.00" y1="1315.93" x2="682.00" y2="1315.93" class="grid"/>
<text x="114.00" y="1319.93" text-anchor="end" class="tick">10.0ms</text>
<line x1="122.00" y1="1267.32" x2="682.00" y2="1267.32" class="grid"/>
<text x="114.00" y="1271.32" text-anchor="end" class="tick">100.0ms</text>
<line x1="122.00" y1="1218.72" x2="682.00" y2="1218.72" class="grid"/>
<text x="114.00" y="1222.72" text-anchor="end" class="tick">1.00s</text>
<line x1="122.00" y1="1170.11" x2="682.00" y2="1170.11" class="grid"/>
<text x="114.00" y="1174.11" text-anchor="end" class="tick">10.00s</text>
<line x1="122.00" y1="1148.00" x2="682.00" y2="1148.00" class="grid"/>
<text x="114.00" y="1152.00" text-anchor="end" class="tick">28.51s</text>
<g><title>message.handle_group_message.ms = 28.51s</title>
<rect x="137.40" y="1148.00" width="39.20" height="235.00" rx="4" fill="#dc2626"/>
<text x="157.00" y="1160.00" text-anchor="middle" class="value">28.51s</text>
<text x="157.00" y="1403.00" text-anchor="end" transform="rotate(-35 157.00 1403.00)" class="label">handle</text>
<text x="157.00" y="1417.00" text-anchor="end" transform="rotate(-35 157.00 1417.00)" class="metric">message.handle_group_message.ms</text>
</g>
<g><title>message.matcher.ms = 0.417ms</title>
<rect x="207.40" y="1382.00" width="39.20" height="1.00" rx="4" fill="#16a34a"/>
<text x="227.00" y="1375.00" text-anchor="middle" class="value">0.417ms</text>
<text x="227.00" y="1403.00" text-anchor="end" transform="rotate(-35 227.00 1403.00)" class="label">matcher</text>
<text x="227.00" y="1417.00" text-anchor="end" transform="rotate(-35 227.00 1417.00)" class="metric">message.matcher.ms</text>
</g>
<g><title>violation_action.forward.ms = 2.17ms</title>
<rect x="277.40" y="1348.19" width="39.20" height="34.81" rx="4" fill="#7c3aed"/>
<text x="297.00" y="1341.19" text-anchor="middle" class="value">2.17ms</text>
<text x="297.00" y="1403.00" text-anchor="end" transform="rotate(-35 297.00 1403.00)" class="label">forward</text>
<text x="297.00" y="1417.00" text-anchor="end" transform="rotate(-35 297.00 1417.00)" class="metric">violation_action.forward.ms</text>
</g>
<g><title>violation_action.mute.ms = 5.52s</title>
<rect x="347.40" y="1182.65" width="39.20" height="200.35" rx="4" fill="#ea580c"/>
<text x="367.00" y="1175.65" text-anchor="middle" class="value">5.52s</text>
<text x="367.00" y="1403.00" text-anchor="end" transform="rotate(-35 367.00 1403.00)" class="label">mute</text>
<text x="367.00" y="1417.00" text-anchor="end" transform="rotate(-35 367.00 1417.00)" class="metric">violation_action.mute.ms</text>
</g>
<g><title>violation_action.recall.ms = 2.20ms</title>
<rect x="417.40" y="1347.85" width="39.20" height="35.15" rx="4" fill="#db2777"/>
<text x="437.00" y="1340.85" text-anchor="middle" class="value">2.20ms</text>
<text x="437.00" y="1403.00" text-anchor="end" transform="rotate(-35 437.00 1403.00)" class="label">recall</text>
<text x="437.00" y="1417.00" text-anchor="end" transform="rotate(-35 437.00 1417.00)" class="metric">violation_action.recall.ms</text>
</g>
<g><title>violation_action.text_log.ms = 2.35ms</title>
<rect x="487.40" y="1346.55" width="39.20" height="36.45" rx="4" fill="#0891b2"/>
<text x="507.00" y="1339.55" text-anchor="middle" class="value">2.35ms</text>
<text x="507.00" y="1403.00" text-anchor="end" transform="rotate(-35 507.00 1403.00)" class="label">text log</text>
<text x="507.00" y="1417.00" text-anchor="end" transform="rotate(-35 507.00 1417.00)" class="metric">violation_action.text_log.ms</text>
</g>
<g><title>violation_job.process.ms = 6.61s</title>
<rect x="557.40" y="1178.85" width="39.20" height="204.15" rx="4" fill="#f59e0b"/>
<text x="577.00" y="1171.85" text-anchor="middle" class="value">6.61s</text>
<text x="577.00" y="1403.00" text-anchor="end" transform="rotate(-35 577.00 1403.00)" class="label">job process</text>
<text x="577.00" y="1417.00" text-anchor="end" transform="rotate(-35 577.00 1417.00)" class="metric">violation_job.process.ms</text>
</g>
<g><title>violation_record.ms = 139.7ms</title>
<rect x="627.40" y="1260.26" width="39.20" height="122.74" rx="4" fill="#059669"/>
<text x="647.00" y="1253.26" text-anchor="middle" class="value">139.7ms</text>
<text x="647.00" y="1403.00" text-anchor="end" transform="rotate(-35 647.00 1403.00)" class="label">record</text>
<text x="647.00" y="1417.00" text-anchor="end" transform="rotate(-35 647.00 1417.00)" class="metric">violation_record.ms</text>
</g>
<rect x="750" y="1050" width="650" height="445" rx="8" fill="#ffffff" stroke="#e2e8f0"/>
<text x="772" y="1082" class="panel-title">Timings：累计耗时（对数刻度）</text>
<text x="772" y="1106" class="subtitle">total_ms 是所有样本耗时之和，不等同墙钟压测总时长；用于判断耗时贡献。</text>
<line x1="816.00" y1="1383.00" x2="1376.00" y2="1383.00" class="axis"/>
<line x1="816.00" y1="1148.00" x2="816.00" y2="1383.00" class="axis"/>
<line x1="816.00" y1="1383.00" x2="1376.00" y2="1383.00" class="grid"/>
<text x="808.00" y="1387.00" text-anchor="end" class="tick">81.5ms</text>
<line x1="816.00" y1="1333.56" x2="1376.00" y2="1333.56" class="grid"/>
<text x="808.00" y="1337.56" text-anchor="end" class="tick">1.00s</text>
<line x1="816.00" y1="1242.73" x2="1376.00" y2="1242.73" class="grid"/>
<text x="808.00" y="1246.73" text-anchor="end" class="tick">1.67m</text>
<line x1="816.00" y1="1151.90" x2="1376.00" y2="1151.90" class="grid"/>
<text x="808.00" y="1155.90" text-anchor="end" class="tick">2.78h</text>
<line x1="816.00" y1="1148.00" x2="1376.00" y2="1148.00" class="grid"/>
<text x="808.00" y="1152.00" text-anchor="end" class="tick">3.38h</text>
<g><title>message.handle_group_message.ms = 3.38h</title>
<rect x="831.40" y="1148.00" width="39.20" height="235.00" rx="4" fill="#dc2626"/>
<text x="851.00" y="1160.00" text-anchor="middle" class="value">3.38h</text>
<text x="851.00" y="1403.00" text-anchor="end" transform="rotate(-35 851.00 1403.00)" class="label">handle</text>
<text x="851.00" y="1417.00" text-anchor="end" transform="rotate(-35 851.00 1417.00)" class="metric">message.handle_group_message.ms</text>
</g>
<g><title>message.matcher.ms = 81.5ms</title>
<rect x="901.40" y="1382.00" width="39.20" height="1.00" rx="4" fill="#16a34a"/>
<text x="921.00" y="1375.00" text-anchor="middle" class="value">81.5ms</text>
<text x="921.00" y="1403.00" text-anchor="end" transform="rotate(-35 921.00 1403.00)" class="label">matcher</text>
<text x="921.00" y="1417.00" text-anchor="end" transform="rotate(-35 921.00 1417.00)" class="metric">message.matcher.ms</text>
</g>
<g><title>violation_action.forward.ms = 220.0ms</title>
<rect x="971.40" y="1363.43" width="39.20" height="19.57" rx="4" fill="#7c3aed"/>
<text x="991.00" y="1356.43" text-anchor="middle" class="value">220.0ms</text>
<text x="991.00" y="1403.00" text-anchor="end" transform="rotate(-35 991.00 1403.00)" class="label">forward</text>
<text x="991.00" y="1417.00" text-anchor="end" transform="rotate(-35 991.00 1417.00)" class="metric">violation_action.forward.ms</text>
</g>
<g><title>violation_action.mute.ms = 5.63s</title>
<rect x="1041.40" y="1299.48" width="39.20" height="83.52" rx="4" fill="#ea580c"/>
<text x="1061.00" y="1292.48" text-anchor="middle" class="value">5.63s</text>
<text x="1061.00" y="1403.00" text-anchor="end" transform="rotate(-35 1061.00 1403.00)" class="label">mute</text>
<text x="1061.00" y="1417.00" text-anchor="end" transform="rotate(-35 1061.00 1417.00)" class="metric">violation_action.mute.ms</text>
</g>
<g><title>violation_action.recall.ms = 105.5ms</title>
<rect x="1111.40" y="1377.92" width="39.20" height="5.08" rx="4" fill="#db2777"/>
<text x="1131.00" y="1370.92" text-anchor="middle" class="value">105.5ms</text>
<text x="1131.00" y="1403.00" text-anchor="end" transform="rotate(-35 1131.00 1403.00)" class="label">recall</text>
<text x="1131.00" y="1417.00" text-anchor="end" transform="rotate(-35 1131.00 1417.00)" class="metric">violation_action.recall.ms</text>
</g>
<g><title>violation_action.text_log.ms = 216.9ms</title>
<rect x="1181.40" y="1363.71" width="39.20" height="19.29" rx="4" fill="#0891b2"/>
<text x="1201.00" y="1356.71" text-anchor="middle" class="value">216.9ms</text>
<text x="1201.00" y="1403.00" text-anchor="end" transform="rotate(-35 1201.00 1403.00)" class="label">text log</text>
<text x="1201.00" y="1417.00" text-anchor="end" transform="rotate(-35 1201.00 1417.00)" class="metric">violation_action.text_log.ms</text>
</g>
<g><title>violation_job.process.ms = 30.30s</title>
<rect x="1251.40" y="1266.28" width="39.20" height="116.72" rx="4" fill="#f59e0b"/>
<text x="1271.00" y="1259.28" text-anchor="middle" class="value">30.30s</text>
<text x="1271.00" y="1403.00" text-anchor="end" transform="rotate(-35 1271.00 1403.00)" class="label">job process</text>
<text x="1271.00" y="1417.00" text-anchor="end" transform="rotate(-35 1271.00 1417.00)" class="metric">violation_job.process.ms</text>
</g>
<g><title>violation_record.ms = 2.18s</title>
<rect x="1321.40" y="1318.15" width="39.20" height="64.85" rx="4" fill="#059669"/>
<text x="1341.00" y="1311.15" text-anchor="middle" class="value">2.18s</text>
<text x="1341.00" y="1403.00" text-anchor="end" transform="rotate(-35 1341.00 1403.00)" class="label">record</text>
<text x="1341.00" y="1417.00" text-anchor="end" transform="rotate(-35 1341.00 1417.00)" class="metric">violation_record.ms</text>
</g>
<text x="56" y="1603" class="page-subtitle">注：本图为运行中快照可视化，不代表队列排空后的最终性能基准。</text>
</svg>