<svg xmlns="http://www.w3.org/2000/svg" width="1800" height="910" viewBox="0 0 1800 910" role="img" aria-labelledby="title desc">
<title id="title">Chat Filter metrics 蓝色主题柱状图</title>
<desc id="desc">两列一行展示 Chat Filter counters 与 timings 指标。柱状图为蓝色主题，背景为白色。</desc>
<defs>
  <linearGradient id="barBlue" x1="0" y1="0" x2="1" y2="0">
    <stop offset="0%" stop-color="#1e40af"/>
    <stop offset="62%" stop-color="#2563eb"/>
    <stop offset="100%" stop-color="#60a5fa"/>
  </linearGradient>
  <linearGradient id="barBlueSoft" x1="0" y1="0" x2="1" y2="0">
    <stop offset="0%" stop-color="#0369a1"/>
    <stop offset="100%" stop-color="#38bdf8"/>
  </linearGradient>
  <filter id="softShadow" x="-5%" y="-5%" width="110%" height="115%">
    <feDropShadow dx="0" dy="6" stdDeviation="10" flood-color="#1e3a8a" flood-opacity="0.12"/>
  </filter>
</defs>
<rect width="100%" height="100%" fill="#ffffff"/>
<style>
  text { font-family: "Microsoft YaHei", "PingFang SC", "Noto Sans CJK SC", Arial, sans-serif; fill: #0f172a; }
  .title { font-size: 27px; font-weight: 800; }
  .subtitle { font-size: 14px; fill: #475569; }
  .takeaway { font-size: 14px; fill: #1e40af; font-weight: 800; }
  .panel-title { font-size: 20px; font-weight: 800; fill: #0f172a; }
  .panel-subtitle { font-size: 12px; fill: #64748b; }
  .axis { stroke: #bfdbfe; stroke-width: 1; }
  .ref-line { stroke: #93c5fd; stroke-width: 0.7; stroke-dasharray: 7 3; stroke-linecap: butt; shape-rendering: crispEdges; opacity: 0.68; }
  .row-label { font-size: 13px; font-weight: 700; fill: #1e293b; }
  .small { font-size: 11px; fill: #475569; }
  .tick { font-size: 10px; fill: #1d4ed8; font-weight: 700; }
  .value { font-size: 12px; font-weight: 800; fill: #0f172a; }
  .header { font-size: 12px; font-weight: 800; fill: #1d4ed8; }
  .note { font-size: 12px; fill: #475569; }
  .issue-title { font-size: 15px; font-weight: 800; fill: #1e40af; }
  .issue-label { font-size: 11px; font-weight: 800; fill: #ffffff; }
  .issue-name { font-size: 13px; font-weight: 800; fill: #0f172a; }
  .issue-text { font-size: 11px; fill: #334155; }
</style>
<text x="40" y="38" class="title">Chat Filter Metrics 快照</text>
<text x="40" y="64" class="subtitle">两列一行：左侧为全部 counters，右侧为 timings 的 count / avg / max / total。图中仅保留中文指标名，完整 metric 名写入悬停标题。</text>
<rect x="40" y="76" width="690" height="24" rx="0.5" fill="#eff6ff" stroke="#bfdbfe"/>
<text x="54" y="93" class="takeaway">核心结论：入口慢在命中后等待 outbox 入队，不是匹配器慢。</text>
<rect x="40" y="112" width="610" height="536" rx="0.5" fill="#ffffff" stroke="#bfdbfe" filter="url(#softShadow)"/>
<rect x="40" y="112" width="610" height="4" rx="0.5" fill="#2563eb"/>
<text x="64" y="152" class="panel-title">Counters</text>
<text x="64" y="174" class="panel-subtitle">全部可参考计数指标；虚线为线性对比基准。</text>
<line x1="330.00" y1="200.00" x2="330.00" y2="567.00" class="ref-line"/>
<text x="330.00" y="192.00" text-anchor="middle" class="tick">250</text>
<line x1="410.00" y1="200.00" x2="410.00" y2="567.00" class="ref-line"/>
<text x="410.00" y="192.00" text-anchor="middle" class="tick">500</text>
<line x1="490.00" y1="200.00" x2="490.00" y2="567.00" class="ref-line"/>
<text x="490.00" y="192.00" text-anchor="middle" class="tick">750</text>
<line x1="570.00" y1="200.00" x2="570.00" y2="567.00" class="ref-line"/>
<text x="570.00" y="192.00" text-anchor="middle" class="tick">1000</text>
<g><title>message.handle_group_message.total = 1000</title>
<text x="66" y="214" class="row-label">入口事件</text>
<rect x="250.00" y="200.00" width="320.00" height="16.00" rx="0.5" ry="0.5" fill="#eff6ff"/>
<rect x="250.00" y="200.00" width="320.00" height="16.00" rx="0.5" ry="0.5" fill="url(#barBlue)"/>
<text x="586" y="214" class="value">1000</text>
</g>
<g><title>message.matched.total = 990</title>
<text x="66" y="253" class="row-label">真实命中</text>
<rect x="250.00" y="239.00" width="320.00" height="16.00" rx="0.5" ry="0.5" fill="#eff6ff"/>
<rect x="250.00" y="239.00" width="316.80" height="16.00" rx="0.5" ry="0.5" fill="url(#barBlue)"/>
<text x="586" y="253" class="value">990</text>
</g>
<g><title>message.unmatched.total = 10</title>
<text x="66" y="292" class="row-label">非消息/未命中</text>
<rect x="250.00" y="278.00" width="320.00" height="16.00" rx="0.5" ry="0.5" fill="#eff6ff"/>
<rect x="250.00" y="278.00" width="3.20" height="16.00" rx="0.5" ry="0.5" fill="#2563eb"/>
<text x="586" y="292" class="value">10</text>
</g>
<g><title>violation_job.enqueued.total = 729</title>
<text x="66" y="331" class="row-label">已入队</text>
<rect x="250.00" y="317.00" width="320.00" height="16.00" rx="0.5" ry="0.5" fill="#eff6ff"/>
<rect x="250.00" y="317.00" width="233.28" height="16.00" rx="0.5" ry="0.5" fill="url(#barBlue)"/>
<text x="586" y="331" class="value">729</text>
</g>
<g><title>violation_job.completed.total = 67</title>
<text x="66" y="370" class="row-label">任务完成</text>
<rect x="250.00" y="356.00" width="320.00" height="16.00" rx="0.5" ry="0.5" fill="#eff6ff"/>
<rect x="250.00" y="356.00" width="21.44" height="16.00" rx="0.5" ry="0.5" fill="#60a5fa"/>
<text x="586" y="370" class="value">67</text>
</g>
<g><title>violation_record.success.total = 68</title>
<text x="66" y="409" class="row-label">记录成功</text>
<rect x="250.00" y="395.00" width="320.00" height="16.00" rx="0.5" ry="0.5" fill="#eff6ff"/>
<rect x="250.00" y="395.00" width="21.76" height="16.00" rx="0.5" ry="0.5" fill="#0284c7"/>
<text x="586" y="409" class="value">68</text>
</g>
<g><title>violation_action.mute.success.total = 68</title>
<text x="66" y="448" class="row-label">禁言成功</text>
<rect x="250.00" y="434.00" width="320.00" height="16.00" rx="0.5" ry="0.5" fill="#eff6ff"/>
<rect x="250.00" y="434.00" width="21.76" height="16.00" rx="0.5" ry="0.5" fill="#0369a1"/>
<text x="586" y="448" class="value">68</text>
</g>
<g><title>violation_action.recall.success.total = 68</title>
<text x="66" y="487" class="row-label">撤回成功</text>
<rect x="250.00" y="473.00" width="320.00" height="16.00" rx="0.5" ry="0.5" fill="#eff6ff"/>
<rect x="250.00" y="473.00" width="21.76" height="16.00" rx="0.5" ry="0.5" fill="#0ea5e9"/>
<text x="586" y="487" class="value">68</text>
</g>
<g><title>violation_action.forward.success.total = 203</title>
<text x="66" y="526" class="row-label">转发成功</text>
<rect x="250.00" y="512.00" width="320.00" height="16.00" rx="0.5" ry="0.5" fill="#eff6ff"/>
<rect x="250.00" y="512.00" width="64.96" height="16.00" rx="0.5" ry="0.5" fill="#1e3a8a"/>
<text x="586" y="526" class="value">203</text>
</g>
<g><title>violation_action.text_log.success.total = 135</title>
<text x="66" y="565" class="row-label">文本日志成功</text>
<rect x="250.00" y="551.00" width="320.00" height="16.00" rx="0.5" ry="0.5" fill="#eff6ff"/>
<rect x="250.00" y="551.00" width="43.20" height="16.00" rx="0.5" ry="0.5" fill="#1d4ed8"/>
<text x="586" y="565" class="value">135</text>
</g>
<rect x="680" y="112" width="1080" height="536" rx="0.5" fill="#ffffff" stroke="#bfdbfe" filter="url(#softShadow)"/>
<rect x="680" y="112" width="1080" height="4" rx="0.5" fill="#2563eb"/>
<text x="704" y="152" class="panel-title">Timings</text>
<text x="704" y="174" class="panel-subtitle">每列单独使用对比基准；avg/max/total 为对数刻度。</text>
<text x="900" y="184" class="header">count</text>
<line x1="900" y1="195" x2="1008" y2="195" class="axis"/>
<text x="1040" y="184" class="header">avg_ms</text>
<line x1="1040" y1="195" x2="1198" y2="195" class="axis"/>
<text x="1230" y="184" class="header">max_ms</text>
<line x1="1230" y1="195" x2="1388" y2="195" class="axis"/>
<text x="1420" y="184" class="header">total_ms</text>
<line x1="1420" y1="195" x2="1626" y2="195" class="axis"/>
<line x1="927.00" y1="207.00" x2="927.00" y2="581.00" class="ref-line"/>
<text x="927.00" y="199.00" text-anchor="middle" class="tick">250</text>
<line x1="954.00" y1="207.00" x2="954.00" y2="581.00" class="ref-line"/>
<text x="954.00" y="199.00" text-anchor="middle" class="tick">500</text>
<line x1="981.00" y1="207.00" x2="981.00" y2="581.00" class="ref-line"/>
<text x="981.00" y="199.00" text-anchor="middle" class="tick">750</text>
<line x1="1008.00" y1="207.00" x2="1008.00" y2="581.00" class="ref-line"/>
<text x="1008.00" y="199.00" text-anchor="middle" class="tick">1000</text>
<line x1="1072.36" y1="207.00" x2="1072.36" y2="581.00" class="ref-line"/>
<text x="1072.36" y="199.00" text-anchor="middle" class="tick">1ms</text>
<line x1="1131.95" y1="207.00" x2="1131.95" y2="581.00" class="ref-line"/>
<text x="1131.95" y="199.00" text-anchor="middle" class="tick">100ms</text>
<line x1="1161.74" y1="207.00" x2="1161.74" y2="581.00" class="ref-line"/>
<text x="1161.74" y="199.00" text-anchor="middle" class="tick">1s</text>
<line x1="1198.00" y1="207.00" x2="1198.00" y2="581.00" class="ref-line"/>
<text x="1198.00" y="199.00" text-anchor="middle" class="tick">16.49s</text>
<line x1="1242.41" y1="207.00" x2="1242.41" y2="581.00" class="ref-line"/>
<text x="1242.41" y="199.00" text-anchor="middle" class="tick">1ms</text>
<line x1="1307.77" y1="207.00" x2="1307.77" y2="581.00" class="ref-line"/>
<text x="1307.77" y="199.00" text-anchor="middle" class="tick">100ms</text>
<line x1="1340.45" y1="207.00" x2="1340.45" y2="581.00" class="ref-line"/>
<text x="1340.45" y="199.00" text-anchor="middle" class="tick">1s</text>
<line x1="1388.00" y1="207.00" x2="1388.00" y2="581.00" class="ref-line"/>
<text x="1388.00" y="199.00" text-anchor="middle" class="tick">28.51s</text>
<line x1="1423.53" y1="207.00" x2="1423.53" y2="581.00" class="ref-line"/>
<text x="1423.53" y="199.00" text-anchor="middle" class="tick">100ms</text>
<line x1="1503.15" y1="207.00" x2="1503.15" y2="581.00" class="ref-line"/>
<text x="1503.15" y="199.00" text-anchor="middle" class="tick">10s</text>
<line x1="1573.94" y1="207.00" x2="1573.94" y2="581.00" class="ref-line"/>
<text x="1573.94" y="199.00" text-anchor="middle" class="tick">10m</text>
<line x1="1626.00" y1="207.00" x2="1626.00" y2="581.00" class="ref-line"/>
<text x="1626.00" y="199.00" text-anchor="middle" class="tick">3.38h</text>
<g><title>message.handle_group_message.ms: count=739, avg=16.49s, max=28.51s, total=3.38h</title>
<text x="704" y="222" class="row-label">入口处理</text>
<rect x="900.00" y="207.00" width="108.00" height="15.00" rx="0.5" ry="0.5" fill="#eff6ff"/>
<rect x="900.00" y="207.00" width="79.81" height="15.00" rx="0.5" ry="0.5" fill="#1d4ed8"/>
<text x="900" y="238" class="small">739</text>
<rect x="1040.00" y="207.00" width="158.00" height="15.00" rx="0.5" ry="0.5" fill="#eff6ff"/>
<rect x="1040.00" y="207.00" width="158.00" height="15.00" rx="0.5" ry="0.5" fill="url(#barBlue)"/>
<text x="1040" y="238" class="small">16.49s</text>
<rect x="1230.00" y="207.00" width="158.00" height="15.00" rx="0.5" ry="0.5" fill="#eff6ff"/>
<rect x="1230.00" y="207.00" width="158.00" height="15.00" rx="0.5" ry="0.5" fill="url(#barBlue)"/>
<text x="1230" y="238" class="small">28.51s</text>
<rect x="1420.00" y="207.00" width="206.00" height="15.00" rx="0.5" ry="0.5" fill="#eff6ff"/>
<rect x="1420.00" y="207.00" width="206.00" height="15.00" rx="0.5" ry="0.5" fill="url(#barBlueSoft)"/>
<text x="1420" y="238" class="small">3.38h</text>
</g>
<g><title>message.matcher.ms: count=1000, avg=0.082ms, max=0.417ms, total=81.5ms</title>
<text x="704" y="273" class="row-label">匹配器</text>
<rect x="900.00" y="258.00" width="108.00" height="15.00" rx="0.5" ry="0.5" fill="#eff6ff"/>
<rect x="900.00" y="258.00" width="108.00" height="15.00" rx="0.5" ry="0.5" fill="#1d4ed8"/>
<text x="900" y="289" class="small">1000</text>
<rect x="1040.00" y="258.00" width="158.00" height="15.00" rx="0.5" ry="0.5" fill="#eff6ff"/>
<rect x="1040.00" y="258.00" width="2.00" height="15.00" rx="0.5" ry="0.5" fill="url(#barBlue)"/>
<text x="1040" y="289" class="small">0.082ms</text>
<rect x="1230.00" y="258.00" width="158.00" height="15.00" rx="0.5" ry="0.5" fill="#eff6ff"/>
<rect x="1230.00" y="258.00" width="2.00" height="15.00" rx="0.5" ry="0.5" fill="url(#barBlue)"/>
<text x="1230" y="289" class="small">0.417ms</text>
<rect x="1420.00" y="258.00" width="206.00" height="15.00" rx="0.5" ry="0.5" fill="#eff6ff"/>
<rect x="1420.00" y="258.00" width="2.00" height="15.00" rx="0.5" ry="0.5" fill="url(#barBlueSoft)"/>
<text x="1420" y="289" class="small">81.5ms</text>
</g>
<g><title>violation_action.forward.ms: count=136, avg=1.62ms, max=2.17ms, total=220.0ms</title>
<text x="704" y="324" class="row-label">转发</text>
<rect x="900.00" y="309.00" width="108.00" height="15.00" rx="0.5" ry="0.5" fill="#eff6ff"/>
<rect x="900.00" y="309.00" width="14.69" height="15.00" rx="0.5" ry="0.5" fill="#1d4ed8"/>
<text x="900" y="340" class="small">136</text>
<rect x="1040.00" y="309.00" width="158.00" height="15.00" rx="0.5" ry="0.5" fill="#eff6ff"/>
<rect x="1040.00" y="309.00" width="38.58" height="15.00" rx="0.5" ry="0.5" fill="url(#barBlue)"/>
<text x="1040" y="340" class="small">1.62ms</text>
<rect x="1230.00" y="309.00" width="158.00" height="15.00" rx="0.5" ry="0.5" fill="#eff6ff"/>
<rect x="1230.00" y="309.00" width="23.40" height="15.00" rx="0.5" ry="0.5" fill="url(#barBlue)"/>
<text x="1230" y="340" class="small">2.17ms</text>
<rect x="1420.00" y="309.00" width="206.00" height="15.00" rx="0.5" ry="0.5" fill="#eff6ff"/>
<rect x="1420.00" y="309.00" width="17.16" height="15.00" rx="0.5" ry="0.5" fill="url(#barBlueSoft)"/>
<text x="1420" y="340" class="small">220.0ms</text>
</g>
<g><title>violation_action.mute.ms: count=68, avg=82.8ms, max=5.52s, total=5.63s</title>
<text x="704" y="375" class="row-label">禁言</text>
<rect x="900.00" y="360.00" width="108.00" height="15.00" rx="0.5" ry="0.5" fill="#eff6ff"/>
<rect x="900.00" y="360.00" width="7.34" height="15.00" rx="0.5" ry="0.5" fill="#1d4ed8"/>
<text x="900" y="391" class="small">68</text>
<rect x="1040.00" y="360.00" width="158.00" height="15.00" rx="0.5" ry="0.5" fill="#eff6ff"/>
<rect x="1040.00" y="360.00" width="89.50" height="15.00" rx="0.5" ry="0.5" fill="url(#barBlue)"/>
<text x="1040" y="391" class="small">82.8ms</text>
<rect x="1230.00" y="360.00" width="158.00" height="15.00" rx="0.5" ry="0.5" fill="#eff6ff"/>
<rect x="1230.00" y="360.00" width="134.71" height="15.00" rx="0.5" ry="0.5" fill="url(#barBlue)"/>
<text x="1230" y="391" class="small">5.52s</text>
<rect x="1420.00" y="360.00" width="206.00" height="15.00" rx="0.5" ry="0.5" fill="#eff6ff"/>
<rect x="1420.00" y="360.00" width="73.22" height="15.00" rx="0.5" ry="0.5" fill="url(#barBlueSoft)"/>
<text x="1420" y="391" class="small">5.63s</text>
</g>
<g><title>violation_action.recall.ms: count=68, avg=1.55ms, max=2.20ms, total=105.5ms</title>
<text x="704" y="426" class="row-label">撤回</text>
<rect x="900.00" y="411.00" width="108.00" height="15.00" rx="0.5" ry="0.5" fill="#eff6ff"/>
<rect x="900.00" y="411.00" width="7.34" height="15.00" rx="0.5" ry="0.5" fill="#1d4ed8"/>
<text x="900" y="442" class="small">68</text>
<rect x="1040.00" y="411.00" width="158.00" height="15.00" rx="0.5" ry="0.5" fill="#eff6ff"/>
<rect x="1040.00" y="411.00" width="38.05" height="15.00" rx="0.5" ry="0.5" fill="url(#barBlue)"/>
<text x="1040" y="442" class="small">1.55ms</text>
<rect x="1230.00" y="411.00" width="158.00" height="15.00" rx="0.5" ry="0.5" fill="#eff6ff"/>
<rect x="1230.00" y="411.00" width="23.63" height="15.00" rx="0.5" ry="0.5" fill="url(#barBlue)"/>
<text x="1230" y="442" class="small">2.20ms</text>
<rect x="1420.00" y="411.00" width="206.00" height="15.00" rx="0.5" ry="0.5" fill="#eff6ff"/>
<rect x="1420.00" y="411.00" width="4.46" height="15.00" rx="0.5" ry="0.5" fill="url(#barBlueSoft)"/>
<text x="1420" y="442" class="small">105.5ms</text>
</g>
<g><title>violation_action.text_log.ms: count=135, avg=1.61ms, max=2.35ms, total=216.9ms</title>
<text x="704" y="477" class="row-label">文本日志</text>
<rect x="900.00" y="462.00" width="108.00" height="15.00" rx="0.5" ry="0.5" fill="#eff6ff"/>
<rect x="900.00" y="462.00" width="14.58" height="15.00" rx="0.5" ry="0.5" fill="#1d4ed8"/>
<text x="900" y="493" class="small">135</text>
<rect x="1040.00" y="462.00" width="158.00" height="15.00" rx="0.5" ry="0.5" fill="#eff6ff"/>
<rect x="1040.00" y="462.00" width="38.49" height="15.00" rx="0.5" ry="0.5" fill="url(#barBlue)"/>
<text x="1040" y="493" class="small">1.61ms</text>
<rect x="1230.00" y="462.00" width="158.00" height="15.00" rx="0.5" ry="0.5" fill="#eff6ff"/>
<rect x="1230.00" y="462.00" width="24.51" height="15.00" rx="0.5" ry="0.5" fill="url(#barBlue)"/>
<text x="1230" y="493" class="small">2.35ms</text>
<rect x="1420.00" y="462.00" width="206.00" height="15.00" rx="0.5" ry="0.5" fill="#eff6ff"/>
<rect x="1420.00" y="462.00" width="16.91" height="15.00" rx="0.5" ry="0.5" fill="url(#barBlueSoft)"/>
<text x="1420" y="493" class="small">216.9ms</text>
</g>
<g><title>violation_job.process.ms: count=67, avg=452.3ms, max=6.61s, total=30.30s</title>
<text x="704" y="528" class="row-label">任务处理</text>
<rect x="900.00" y="513.00" width="108.00" height="15.00" rx="0.5" ry="0.5" fill="#eff6ff"/>
<rect x="900.00" y="513.00" width="7.24" height="15.00" rx="0.5" ry="0.5" fill="#1d4ed8"/>
<text x="900" y="544" class="small">67</text>
<rect x="1040.00" y="513.00" width="158.00" height="15.00" rx="0.5" ry="0.5" fill="#eff6ff"/>
<rect x="1040.00" y="513.00" width="111.47" height="15.00" rx="0.5" ry="0.5" fill="url(#barBlue)"/>
<text x="1040" y="544" class="small">452.3ms</text>
<rect x="1230.00" y="513.00" width="158.00" height="15.00" rx="0.5" ry="0.5" fill="#eff6ff"/>
<rect x="1230.00" y="513.00" width="137.26" height="15.00" rx="0.5" ry="0.5" fill="url(#barBlue)"/>
<text x="1230" y="544" class="small">6.61s</text>
<rect x="1420.00" y="513.00" width="206.00" height="15.00" rx="0.5" ry="0.5" fill="#eff6ff"/>
<rect x="1420.00" y="513.00" width="102.32" height="15.00" rx="0.5" ry="0.5" fill="url(#barBlueSoft)"/>
<text x="1420" y="544" class="small">30.30s</text>
</g>
<g><title>violation_record.ms: count=68, avg=32.1ms, max=139.7ms, total=2.18s</title>
<text x="704" y="579" class="row-label">记录写入</text>
<rect x="900.00" y="564.00" width="108.00" height="15.00" rx="0.5" ry="0.5" fill="#eff6ff"/>
<rect x="900.00" y="564.00" width="7.34" height="15.00" rx="0.5" ry="0.5" fill="#1d4ed8"/>
<text x="900" y="595" class="small">68</text>
<rect x="1040.00" y="564.00" width="158.00" height="15.00" rx="0.5" ry="0.5" fill="#eff6ff"/>
<rect x="1040.00" y="564.00" width="77.25" height="15.00" rx="0.5" ry="0.5" fill="url(#barBlue)"/>
<text x="1040" y="595" class="small">32.1ms</text>
<rect x="1230.00" y="564.00" width="158.00" height="15.00" rx="0.5" ry="0.5" fill="#eff6ff"/>
<rect x="1230.00" y="564.00" width="82.52" height="15.00" rx="0.5" ry="0.5" fill="url(#barBlue)"/>
<text x="1230" y="595" class="small">139.7ms</text>
<rect x="1420.00" y="564.00" width="206.00" height="15.00" rx="0.5" ry="0.5" fill="#eff6ff"/>
<rect x="1420.00" y="564.00" width="56.85" height="15.00" rx="0.5" ry="0.5" fill="url(#barBlueSoft)"/>
<text x="1420" y="595" class="small">2.18s</text>
</g>
<rect x="40" y="680" width="1720" height="170" rx="0.5" fill="#f8fbff" stroke="#bfdbfe" filter="url(#softShadow)"/>
<rect x="40" y="680" width="1720" height="4" rx="0.5" fill="#2563eb"/>
<text x="64" y="714" class="issue-title">延迟问题清单</text>
<rect x="64" y="732" width="410" height="46" rx="0.5" fill="#ffffff" stroke="#dbeafe"/>
<rect x="74" y="743" width="42" height="20" rx="0.5" fill="#1e40af"/>
<text x="95" y="757" text-anchor="middle" class="issue-label">严重</text>
<text x="126" y="751" class="issue-name">入口处理</text>
<text x="126" y="768" class="issue-text">avg 16.49s / max 28.51s，等待 outbox 入队拖慢入口。</text>
<rect x="492" y="732" width="410" height="46" rx="0.5" fill="#ffffff" stroke="#dbeafe"/>
<rect x="502" y="743" width="42" height="20" rx="0.5" fill="#2563eb"/>
<text x="523" y="757" text-anchor="middle" class="issue-label">正常</text>
<text x="554" y="751" class="issue-name">匹配器</text>
<text x="554" y="768" class="issue-text">avg 0.082ms，规则匹配不是瓶颈。</text>
<rect x="920" y="732" width="410" height="46" rx="0.5" fill="#ffffff" stroke="#dbeafe"/>
<rect x="930" y="743" width="42" height="20" rx="0.5" fill="#3b82f6"/>
<text x="951" y="757" text-anchor="middle" class="issue-label">正常</text>
<text x="982" y="751" class="issue-name">转发</text>
<text x="982" y="768" class="issue-text">avg 1.62ms，延迟正常；success 语义需拆分。</text>
<rect x="1348" y="732" width="410" height="46" rx="0.5" fill="#ffffff" stroke="#dbeafe"/>
<rect x="1358" y="743" width="42" height="20" rx="0.5" fill="#0369a1"/>
<text x="1379" y="757" text-anchor="middle" class="issue-label">尖峰</text>
<text x="1410" y="751" class="issue-name">禁言</text>
<text x="1410" y="768" class="issue-text">max 5.52s，存在平台动作尖峰，继续观察 API/权限响应。</text>
<rect x="64" y="792" width="410" height="46" rx="0.5" fill="#ffffff" stroke="#dbeafe"/>
<rect x="74" y="803" width="42" height="20" rx="0.5" fill="#60a5fa"/>
<text x="95" y="817" text-anchor="middle" class="issue-label">正常</text>
<text x="126" y="811" class="issue-name">撤回</text>
<text x="126" y="828" class="issue-text">avg 1.55ms，暂未暴露延迟瓶颈。</text>
<rect x="492" y="792" width="410" height="46" rx="0.5" fill="#ffffff" stroke="#dbeafe"/>
<rect x="502" y="803" width="42" height="20" rx="0.5" fill="#60a5fa"/>
<text x="523" y="817" text-anchor="middle" class="issue-label">正常</text>
<text x="554" y="811" class="issue-name">文本日志</text>
<text x="554" y="828" class="issue-text">avg 1.61ms，暂未暴露延迟瓶颈。</text>
<rect x="920" y="792" width="410" height="46" rx="0.5" fill="#ffffff" stroke="#dbeafe"/>
<rect x="930" y="803" width="42" height="20" rx="0.5" fill="#0284c7"/>
<text x="951" y="817" text-anchor="middle" class="issue-label">尖峰</text>
<text x="982" y="811" class="issue-name">任务处理</text>
<text x="982" y="828" class="issue-text">avg 452.3ms / max 6.61s，worker 尖峰影响队列排空。</text>
<rect x="1348" y="792" width="410" height="46" rx="0.5" fill="#ffffff" stroke="#dbeafe"/>
<rect x="1358" y="803" width="42" height="20" rx="0.5" fill="#0ea5e9"/>
<text x="1379" y="817" text-anchor="middle" class="issue-label">可接受</text>
<text x="1410" y="811" class="issue-name">记录写入</text>
<text x="1410" y="828" class="issue-text">avg 32.1ms / max 139.7ms，会叠加入队压力。</text>
<text x="40" y="886" class="note">注：这是压测过程中的运行中快照，用于诊断，不代表队列排空后的最终性能基准。虚线为贯穿到最底部柱子的对比基准，蓝色条形越长表示该列归一化后的相对值越高。</text>
</svg>
